<svg width="0" height="0" class="hidden">
    <symbol id="logo" viewBox="0 0 49 56" fill="none" xmlns="http://www.w3.org/2000/svg">
        <rect width="48.186" height="56" fill="white"/>
        <path d="M0.212646 0.504883H21.1796L21.4218 45.2388C21.4511 50.6447 17.2117 55.0431 11.9721 55.0431H9.9052C4.70678 55.0431 0.484499 50.7111 0.455458 45.3477L0.212646 0.504883Z"
              fill="#5F5FED"/>
        <path d="M26.4717 0.504883H47.681V18.1334C47.681 26.2467 40.9938 32.8238 32.7449 32.8238H26.4717V0.504883Z"
              fill="#338BEE"/>
    </symbol>

    <svg id="telegram" viewBox="0 0 20 20" fill="none" xmlns="http://www.w3.org/2000/svg">
        <g clip-path="url(#clip0_14088_1317)">
            <path d="M10 20C15.5228 20 20 15.5228 20 10C20 4.47715 15.5228 0 10 0C4.47715 0 0 4.47715 0 10C0 15.5228 4.47715 20 10 20Z"
                  fill="url(#paint0_linear_14088_1317)"/>
            <path fill-rule="evenodd" clip-rule="evenodd"
                  d="M4.5266 9.89397C7.4418 8.62386 9.38573 7.78653 10.3584 7.38197C13.1355 6.22688 13.7125 6.02623 14.0887 6.0196C14.1714 6.01814 14.3563 6.03865 14.4762 6.13587C14.5773 6.21796 14.6052 6.32885 14.6185 6.40668C14.6318 6.48451 14.6484 6.66181 14.6352 6.80034C14.4847 8.38158 13.8335 12.2188 13.5022 13.9898C13.3621 14.7392 13.0861 14.9905 12.8188 15.0151C12.2381 15.0685 11.7972 14.6313 11.2347 14.2626C10.3546 13.6857 9.85735 13.3265 9.00303 12.7635C8.01572 12.1129 8.65575 11.7553 9.21842 11.1709C9.36567 11.018 11.9243 8.69066 11.9739 8.47954C11.98 8.45313 11.9858 8.35471 11.9273 8.30274C11.8689 8.25077 11.7826 8.26854 11.7203 8.28267C11.632 8.30271 10.226 9.23203 7.50222 11.0706C7.10313 11.3447 6.74164 11.4782 6.41776 11.4712C6.06071 11.4635 5.37388 11.2693 4.8633 11.1034C4.23705 10.8998 3.73932 10.7922 3.78266 10.4465C3.80524 10.2664 4.05321 10.0822 4.5266 9.89397Z"
                  fill="white"/>
        </g>
        <defs>
            <linearGradient id="paint0_linear_14088_1317" x1="10" y1="0" x2="10" y2="19.8517"
                            gradientUnits="userSpaceOnUse">
                <stop stop-color="#2AABEE"/>
                <stop offset="1" stop-color="#229ED9"/>
            </linearGradient>
            <clipPath id="clip0_14088_1317">
                <rect width="20" height="20" fill="white"/>
            </clipPath>
        </defs>
    </svg>

    <svg id="secure" viewBox="0 0 32 32" fill="none" xmlns="http://www.w3.org/2000/svg">
        <path d="M12 17.0005L15 20.0005L20 13.0005M16 3.61914C12.981 6.48612 8.96035 8.05858 4.79734 8.00047C4.26779 9.61378 3.99863 11.3011 4.00001 12.9991C4.00001 20.4551 9.09867 26.7191 16 28.4965C22.9013 26.7205 28 20.4565 28 13.0005C28 11.2538 27.72 9.57247 27.2027 7.99914H27C22.7387 7.99914 18.8667 6.33514 16 3.61914Z"
              stroke="currentColor" stroke-width="1.5" stroke-linecap="round" stroke-linejoin="round"/>
    </svg>


</svg>
